# xmcd CD database file
#
# Track frame offsets:
#	150
#	18936
#	39663
#	68512
#	85742
#	107519
#	124779
#	143920
#
# Disc length: 2277 seconds
#
# Revision: 1
# Processed by: cddbd v1.5.1PL0 Copyright (c) Steve Scherf et al.
# Submitted via: Feurio! 1.68 - http://www.feurio.com
#
DISCID=5e08e308
DTITLE=Flesh Made Sin - Dawn Of The Stillborn
DYEAR=2005
DGENRE=Death Metal
TTITLE0=Crowned in torment
TTITLE1=Possess the flesh
TTITLE2=Dawn of the stillborn
TTITLE3=The cleansing
TTITLE4=Descending life
TTITLE5=Ritual for the dead
TTITLE6=Wastelands
TTITLE7=Spiritual death-trip
EXTD=
EXTT0=
EXTT1=
EXTT2=
EXTT3=
EXTT4=
EXTT5=
EXTT6=
EXTT7=
PLAYORDER=
